<?xml version="1.0" encoding="utf-8" standalone="no"?>
<!DOCTYPE svg PUBLIC "-//W3C//DTD SVG 1.1//EN"
  "http://www.w3.org/Graphics/SVG/1.1/DTD/svg11.dtd">
<svg xmlns:xlink="http://www.w3.org/1999/xlink" width="460.8pt" height="345.6pt" viewBox="0 0 460.8 345.6" xmlns="http://www.w3.org/2000/svg" version="1.1">
 <metadata>
  <rdf:RDF xmlns:dc="http://purl.org/dc/elements/1.1/" xmlns:cc="http://creativecommons.org/ns#" xmlns:rdf="http://www.w3.org/1999/02/22-rdf-syntax-ns#">
   <cc:Work>
    <dc:type rdf:resource="http://purl.org/dc/dcmitype/StillImage"/>
    <dc:date>2025-10-21T19:31:54.001378</dc:date>
    <dc:format>image/svg+xml</dc:format>
    <dc:creator>
     <cc:Agent>
      <dc:title>Matplotlib v3.10.7, https://matplotlib.org/</dc:title>
     </cc:Agent>
    </dc:creator>
   </cc:Work>
  </rdf:RDF>
 </metadata>
 <defs>
  <style type="text/css">*{stroke-linejoin: round; stroke-linecap: butt}</style>
 </defs>
 <g id="figure_1">
  <g id="patch_1">
   <path d="M 0 345.6 
L 460.8 345.6 
L 460.8 0 
L 0 0 
z
" style="fill: #ffffff"/>
  </g>
  <g id="axes_1">
   <g id="patch_2">
    <path d="M 57.6 307.584 
L 414.72 307.584 
L 414.72 41.472 
L 57.6 41.472 
z
" style="fill: #ffffff"/>
   </g>
   <g id="matplotlib.axis_1">
    <g id="xtick_1">
     <g id="line2d_1">
      <defs>
       <path id="m59d6fdfedb" d="M 0 0 
L 0 3.5 
" style="stroke: #000000; stroke-width: 0.8"/>
      </defs>
      <g>
       <use xlink:href="#m59d6fdfedb" x="73.832727" y="307.584" style="stroke: #000000; stroke-width: 0.8"/>
      </g>
     </g>
     <g id="text_1">
      <!-- 0.0 -->
      <g transform="translate(65.881165 322.182437) scale(0.1 -0.1)">
       <defs>
        <path id="DejaVuSans-30" d="M 2034 4250 
Q 1547 4250 1301 3770 
Q 1056 3291 1056 2328 
Q 1056 1369 1301 889 
Q 1547 409 2034 409 
Q 2525 409 2770 889 
Q 3016 1369 3016 2328 
Q 3016 3291 2770 3770 
Q 2525 4250 2034 4250 
z
M 2034 4750 
Q 2819 4750 3233 4129 
Q 3647 3509 3647 2328 
Q 3647 1150 3233 529 
Q 2819 -91 2034 -91 
Q 1250 -91 836 529 
Q 422 1150 422 2328 
Q 422 3509 836 4129 
Q 1250 4750 2034 4750 
z
" transform="scale(0.015625)"/>
        <path id="DejaVuSans-2e" d="M 684 794 
L 1344 794 
L 1344 0 
L 684 0 
L 684 794 
z
" transform="scale(0.015625)"/>
       </defs>
       <use xlink:href="#DejaVuSans-30"/>
       <use xlink:href="#DejaVuSans-2e" transform="translate(63.623047 0)"/>
       <use xlink:href="#DejaVuSans-30" transform="translate(95.410156 0)"/>
      </g>
     </g>
    </g>
    <g id="xtick_2">
     <g id="line2d_2">
      <g>
       <use xlink:href="#m59d6fdfedb" x="116.550431" y="307.584" style="stroke: #000000; stroke-width: 0.8"/>
      </g>
     </g>
     <g id="text_2">
      <!-- 2.5 -->
      <g transform="translate(108.598868 322.182437) scale(0.1 -0.1)">
       <defs>
        <path id="DejaVuSans-32" d="M 1228 531 
L 3431 531 
L 3431 0 
L 469 0 
L 469 531 
Q 828 903 1448 1529 
Q 2069 2156 2228 2338 
Q 2531 2678 2651 2914 
Q 2772 3150 2772 3378 
Q 2772 3750 2511 3984 
Q 2250 4219 1831 4219 
Q 1534 4219 1204 4116 
Q 875 4013 500 3803 
L 500 4441 
Q 881 4594 1212 4672 
Q 1544 4750 1819 4750 
Q 2544 4750 2975 4387 
Q 3406 4025 3406 3419 
Q 3406 3131 3298 2873 
Q 3191 2616 2906 2266 
Q 2828 2175 2409 1742 
Q 1991 1309 1228 531 
z
" transform="scale(0.015625)"/>
        <path id="DejaVuSans-35" d="M 691 4666 
L 3169 4666 
L 3169 4134 
L 1269 4134 
L 1269 2991 
Q 1406 3038 1543 3061 
Q 1681 3084 1819 3084 
Q 2600 3084 3056 2656 
Q 3513 2228 3513 1497 
Q 3513 744 3044 326 
Q 2575 -91 1722 -91 
Q 1428 -91 1123 -41 
Q 819 9 494 109 
L 494 744 
Q 775 591 1075 516 
Q 1375 441 1709 441 
Q 2250 441 2565 725 
Q 2881 1009 2881 1497 
Q 2881 1984 2565 2268 
Q 2250 2553 1709 2553 
Q 1456 2553 1204 2497 
Q 953 2441 691 2322 
L 691 4666 
z
" transform="scale(0.015625)"/>
       </defs>
       <use xlink:href="#DejaVuSans-32"/>
       <use xlink:href="#DejaVuSans-2e" transform="translate(63.623047 0)"/>
       <use xlink:href="#DejaVuSans-35" transform="translate(95.410156 0)"/>
      </g>
     </g>
    </g>
    <g id="xtick_3">
     <g id="line2d_3">
      <g>
       <use xlink:href="#m59d6fdfedb" x="159.268134" y="307.584" style="stroke: #000000; stroke-width: 0.8"/>
      </g>
     </g>
     <g id="text_3">
      <!-- 5.0 -->
      <g transform="translate(151.316571 322.182437) scale(0.1 -0.1)">
       <use xlink:href="#DejaVuSans-35"/>
       <use xlink:href="#DejaVuSans-2e" transform="translate(63.623047 0)"/>
       <use xlink:href="#DejaVuSans-30" transform="translate(95.410156 0)"/>
      </g>
     </g>
    </g>
    <g id="xtick_4">
     <g id="line2d_4">
      <g>
       <use xlink:href="#m59d6fdfedb" x="201.985837" y="307.584" style="stroke: #000000; stroke-width: 0.8"/>
      </g>
     </g>
     <g id="text_4">
      <!-- 7.5 -->
      <g transform="translate(194.034275 322.182437) scale(0.1 -0.1)">
       <defs>
        <path id="DejaVuSans-37" d="M 525 4666 
L 3525 4666 
L 3525 4397 
L 1831 0 
L 1172 0 
L 2766 4134 
L 525 4134 
L 525 4666 
z
" transform="scale(0.015625)"/>
       </defs>
       <use xlink:href="#DejaVuSans-37"/>
       <use xlink:href="#DejaVuSans-2e" transform="translate(63.623047 0)"/>
       <use xlink:href="#DejaVuSans-35" transform="translate(95.410156 0)"/>
      </g>
     </g>
    </g>
    <g id="xtick_5">
     <g id="line2d_5">
      <g>
       <use xlink:href="#m59d6fdfedb" x="244.703541" y="307.584" style="stroke: #000000; stroke-width: 0.8"/>
      </g>
     </g>
     <g id="text_5">
      <!-- 10.0 -->
      <g transform="translate(233.570728 322.182437) scale(0.1 -0.1)">
       <defs>
        <path id="DejaVuSans-31" d="M 794 531 
L 1825 531 
L 1825 4091 
L 703 3866 
L 703 4441 
L 1819 4666 
L 2450 4666 
L 2450 531 
L 3481 531 
L 3481 0 
L 794 0 
L 794 531 
z
" transform="scale(0.015625)"/>
       </defs>
       <use xlink:href="#DejaVuSans-31"/>
       <use xlink:href="#DejaVuSans-30" transform="translate(63.623047 0)"/>
       <use xlink:href="#DejaVuSans-2e" transform="translate(127.246094 0)"/>
       <use xlink:href="#DejaVuSans-30" transform="translate(159.033203 0)"/>
      </g>
     </g>
    </g>
    <g id="xtick_6">
     <g id="line2d_6">
      <g>
       <use xlink:href="#m59d6fdfedb" x="287.421244" y="307.584" style="stroke: #000000; stroke-width: 0.8"/>
      </g>
     </g>
     <g id="text_6">
      <!-- 12.5 -->
      <g transform="translate(276.288432 322.182437) scale(0.1 -0.1)">
       <use xlink:href="#DejaVuSans-31"/>
       <use xlink:href="#DejaVuSans-32" transform="translate(63.623047 0)"/>
       <use xlink:href="#DejaVuSans-2e" transform="translate(127.246094 0)"/>
       <use xlink:href="#DejaVuSans-35" transform="translate(159.033203 0)"/>
      </g>
     </g>
    </g>
    <g id="xtick_7">
     <g id="line2d_7">
      <g>
       <use xlink:href="#m59d6fdfedb" x="330.138947" y="307.584" style="stroke: #000000; stroke-width: 0.8"/>
      </g>
     </g>
     <g id="text_7">
      <!-- 15.0 -->
      <g transform="translate(319.006135 322.182437) scale(0.1 -0.1)">
       <use xlink:href="#DejaVuSans-31"/>
       <use xlink:href="#DejaVuSans-35" transform="translate(63.623047 0)"/>
       <use xlink:href="#DejaVuSans-2e" transform="translate(127.246094 0)"/>
       <use xlink:href="#DejaVuSans-30" transform="translate(159.033203 0)"/>
      </g>
     </g>
    </g>
    <g id="xtick_8">
     <g id="line2d_8">
      <g>
       <use xlink:href="#m59d6fdfedb" x="372.856651" y="307.584" style="stroke: #000000; stroke-width: 0.8"/>
      </g>
     </g>
     <g id="text_8">
      <!-- 17.5 -->
      <g transform="translate(361.723838 322.182437) scale(0.1 -0.1)">
       <use xlink:href="#DejaVuSans-31"/>
       <use xlink:href="#DejaVuSans-37" transform="translate(63.623047 0)"/>
       <use xlink:href="#DejaVuSans-2e" transform="translate(127.246094 0)"/>
       <use xlink:href="#DejaVuSans-35" transform="translate(159.033203 0)"/>
      </g>
     </g>
    </g>
    <g id="text_9">
     <!-- 0 -->
     <g transform="translate(232.97875 335.860562) scale(0.1 -0.1)">
      <use xlink:href="#DejaVuSans-30"/>
     </g>
    </g>
   </g>
   <g id="matplotlib.axis_2">
    <g id="ytick_1">
     <g id="line2d_9">
      <defs>
       <path id="md2d906bfaf" d="M 0 0 
L -3.5 0 
" style="stroke: #000000; stroke-width: 0.8"/>
      </defs>
      <g>
       <use xlink:href="#md2d906bfaf" x="57.6" y="295.488" style="stroke: #000000; stroke-width: 0.8"/>
      </g>
     </g>
     <g id="text_10">
      <!-- 0 -->
      <g transform="translate(44.2375 299.287219) scale(0.1 -0.1)">
       <use xlink:href="#DejaVuSans-30"/>
      </g>
     </g>
    </g>
    <g id="ytick_2">
     <g id="line2d_10">
      <g>
       <use xlink:href="#md2d906bfaf" x="57.6" y="244.151973" style="stroke: #000000; stroke-width: 0.8"/>
      </g>
     </g>
     <g id="text_11">
      <!-- 100 -->
      <g transform="translate(31.5125 247.951192) scale(0.1 -0.1)">
       <use xlink:href="#DejaVuSans-31"/>
       <use xlink:href="#DejaVuSans-30" transform="translate(63.623047 0)"/>
       <use xlink:href="#DejaVuSans-30" transform="translate(127.246094 0)"/>
      </g>
     </g>
    </g>
    <g id="ytick_3">
     <g id="line2d_11">
      <g>
       <use xlink:href="#md2d906bfaf" x="57.6" y="192.815946" style="stroke: #000000; stroke-width: 0.8"/>
      </g>
     </g>
     <g id="text_12">
      <!-- 200 -->
      <g transform="translate(31.5125 196.615165) scale(0.1 -0.1)">
       <use xlink:href="#DejaVuSans-32"/>
       <use xlink:href="#DejaVuSans-30" transform="translate(63.623047 0)"/>
       <use xlink:href="#DejaVuSans-30" transform="translate(127.246094 0)"/>
      </g>
     </g>
    </g>
    <g id="ytick_4">
     <g id="line2d_12">
      <g>
       <use xlink:href="#md2d906bfaf" x="57.6" y="141.479919" style="stroke: #000000; stroke-width: 0.8"/>
      </g>
     </g>
     <g id="text_13">
      <!-- 300 -->
      <g transform="translate(31.5125 145.279138) scale(0.1 -0.1)">
       <defs>
        <path id="DejaVuSans-33" d="M 2597 2516 
Q 3050 2419 3304 2112 
Q 3559 1806 3559 1356 
Q 3559 666 3084 287 
Q 2609 -91 1734 -91 
Q 1441 -91 1130 -33 
Q 819 25 488 141 
L 488 750 
Q 750 597 1062 519 
Q 1375 441 1716 441 
Q 2309 441 2620 675 
Q 2931 909 2931 1356 
Q 2931 1769 2642 2001 
Q 2353 2234 1838 2234 
L 1294 2234 
L 1294 2753 
L 1863 2753 
Q 2328 2753 2575 2939 
Q 2822 3125 2822 3475 
Q 2822 3834 2567 4026 
Q 2313 4219 1838 4219 
Q 1578 4219 1281 4162 
Q 984 4106 628 3988 
L 628 4550 
Q 988 4650 1302 4700 
Q 1616 4750 1894 4750 
Q 2613 4750 3031 4423 
Q 3450 4097 3450 3541 
Q 3450 3153 3228 2886 
Q 3006 2619 2597 2516 
z
" transform="scale(0.015625)"/>
       </defs>
       <use xlink:href="#DejaVuSans-33"/>
       <use xlink:href="#DejaVuSans-30" transform="translate(63.623047 0)"/>
       <use xlink:href="#DejaVuSans-30" transform="translate(127.246094 0)"/>
      </g>
     </g>
    </g>
    <g id="ytick_5">
     <g id="line2d_13">
      <g>
       <use xlink:href="#md2d906bfaf" x="57.6" y="90.143892" style="stroke: #000000; stroke-width: 0.8"/>
      </g>
     </g>
     <g id="text_14">
      <!-- 400 -->
      <g transform="translate(31.5125 93.943111) scale(0.1 -0.1)">
       <defs>
        <path id="DejaVuSans-34" d="M 2419 4116 
L 825 1625 
L 2419 1625 
L 2419 4116 
z
M 2253 4666 
L 3047 4666 
L 3047 1625 
L 3713 1625 
L 3713 1100 
L 3047 1100 
L 3047 0 
L 2419 0 
L 2419 1100 
L 313 1100 
L 313 1709 
L 2253 4666 
z
" transform="scale(0.015625)"/>
       </defs>
       <use xlink:href="#DejaVuSans-34"/>
       <use xlink:href="#DejaVuSans-30" transform="translate(63.623047 0)"/>
       <use xlink:href="#DejaVuSans-30" transform="translate(127.246094 0)"/>
      </g>
     </g>
    </g>
    <g id="text_15">
     <!--  0.000 -->
     <g transform="translate(25.432812 190.431125) rotate(-90) scale(0.1 -0.1)">
      <defs>
       <path id="DejaVuSans-20" transform="scale(0.015625)"/>
      </defs>
      <use xlink:href="#DejaVuSans-20"/>
      <use xlink:href="#DejaVuSans-30" transform="translate(31.787109 0)"/>
      <use xlink:href="#DejaVuSans-2e" transform="translate(95.410156 0)"/>
      <use xlink:href="#DejaVuSans-30" transform="translate(127.197266 0)"/>
      <use xlink:href="#DejaVuSans-30" transform="translate(190.820312 0)"/>
      <use xlink:href="#DejaVuSans-30" transform="translate(254.443359 0)"/>
     </g>
    </g>
   </g>
   <g id="line2d_14">
    <path d="M 90.919809 295.488 
L 108.00689 292.486896 
L 125.093971 283.440975 
L 142.181053 280.254034 
L 159.268134 277.175926 
L 176.355215 274.197923 
L 193.442297 274.607071 
L 210.529378 274.168148 
L 227.616459 274.170715 
L 244.703541 271.629582 
L 261.790622 273.798529 
L 278.877703 274.174822 
L 295.964785 271.629582 
L 313.051866 274.177389 
L 330.138947 274.177389 
L 347.226029 274.617338 
L 364.31311 274.145047 
L 381.400191 274.176875 
L 398.487273 274.183035 
" clip-path="url(#paa2f52672c)" style="fill: none; stroke: #1f77b4; stroke-width: 1.5; stroke-linecap: square"/>
   </g>
   <g id="line2d_15"/>
   <g id="line2d_16">
    <path d="M 73.832727 295.488 
L 90.919809 286.356861 
L 108.00689 265.748526 
L 125.093971 259.063035 
L 142.181053 256.024456 
L 159.268134 252.919653 
L 176.355215 249.944217 
L 193.442297 249.970912 
L 210.529378 250.899067 
L 227.616459 249.967318 
L 244.703541 246.937979 
L 261.790622 246.026765 
L 278.877703 246.926685 
L 295.964785 246.940033 
L 313.051866 247.942625 
L 330.138947 246.95492 
L 347.226029 246.960567 
L 364.31311 246.962621 
L 381.400191 246.87997 
L 398.487273 246.95338 
" clip-path="url(#paa2f52672c)" style="fill: none; stroke: #2ca02c; stroke-width: 1.5; stroke-linecap: square"/>
   </g>
   <g id="line2d_17"/>
   <g id="line2d_18">
    <path d="M 73.832727 295.488 
L 90.919809 280.646755 
L 108.00689 253.144505 
L 125.093971 239.89211 
L 142.181053 231.977121 
L 159.268134 230.312807 
L 176.355215 228.952916 
L 193.442297 225.816284 
L 210.529378 225.933844 
L 227.616459 224.4605 
L 244.703541 222.932226 
L 261.790622 221.450669 
L 278.877703 221.485577 
L 295.964785 222.924013 
L 313.051866 222.954814 
L 330.138947 222.949167 
L 347.226029 222.954814 
L 364.31311 222.965595 
L 381.400191 222.999477 
L 398.487273 222.848549 
" clip-path="url(#paa2f52672c)" style="fill: none; stroke: #9467bd; stroke-width: 1.5; stroke-linecap: square"/>
   </g>
   <g id="line2d_19"/>
   <g id="line2d_20">
    <path d="M 73.832727 295.488 
L 90.919809 274.387866 
L 108.00689 241.119554 
L 125.093971 223.171452 
L 142.181053 212.398587 
L 159.268134 208.099195 
L 176.355215 205.106304 
L 193.442297 201.935791 
L 210.529378 199.05122 
L 227.616459 199.073808 
L 244.703541 197.057842 
L 261.790622 196.110179 
L 278.877703 199.114363 
L 295.964785 198.110231 
L 313.051866 196.087591 
L 330.138947 196.152275 
L 347.226029 196.288828 
L 364.31311 197.150247 
L 381.400191 199.143625 
L 398.487273 199.162106 
" clip-path="url(#paa2f52672c)" style="fill: none; stroke: #e377c2; stroke-width: 1.5; stroke-linecap: square"/>
   </g>
   <g id="line2d_21"/>
   <g id="line2d_22">
    <path d="M 73.832727 295.488 
L 90.919809 295.488 
L 108.00689 229.634658 
L 125.093971 208.429799 
L 142.181053 196.428976 
L 159.268134 188.199297 
L 176.355215 181.433209 
L 193.442297 178.427485 
L 210.529378 179.003475 
L 227.616459 175.393525 
L 244.703541 172.901161 
L 261.790622 172.457105 
L 278.877703 175.466936 
L 295.964785 175.494657 
L 313.051866 174.07573 
L 330.138947 172.480719 
L 347.226029 172.532569 
L 364.31311 172.973032 
L 381.400191 172.522815 
L 398.487273 172.982272 
" clip-path="url(#paa2f52672c)" style="fill: none; stroke: #bcbd22; stroke-width: 1.5; stroke-linecap: square"/>
   </g>
   <g id="line2d_23"/>
   <g id="line2d_24">
    <path d="M 73.832727 295.488 
L 90.919809 295.488 
L 108.00689 264.68279 
L 125.093971 192.482775 
L 142.181053 179.397222 
L 159.268134 166.892793 
L 176.355215 161.119543 
L 193.442297 154.936119 
L 210.529378 155.01723 
L 227.616459 154.946899 
L 244.703541 151.734804 
L 261.790622 151.928854 
L 278.877703 151.985837 
L 295.964785 148.993974 
L 313.051866 152.041794 
L 330.138947 149.066357 
L 347.226029 150.153141 
L 364.31311 149.016561 
L 381.400191 148.995514 
L 398.487273 149.066357 
" clip-path="url(#paa2f52672c)" style="fill: none; stroke: #1f77b4; stroke-width: 1.5; stroke-linecap: square"/>
   </g>
   <g id="line2d_25"/>
   <g id="line2d_26">
    <path d="M 73.832727 295.488 
L 90.919809 295.488 
L 108.00689 262.802865 
L 125.093971 210.272249 
L 142.181053 179.851546 
L 159.268134 147.416417 
L 176.355215 140.496834 
L 193.442297 134.438157 
L 210.529378 128.530407 
L 227.616459 126.471319 
L 244.703541 124.646323 
L 261.790622 122.587235 
L 278.877703 121.845429 
L 295.964785 122.731489 
L 313.051866 121.676534 
L 330.138947 122.914759 
L 347.226029 122.362383 
L 364.31311 119.358712 
L 381.400191 123.544652 
L 398.487273 122.409099 
" clip-path="url(#paa2f52672c)" style="fill: none; stroke: #2ca02c; stroke-width: 1.5; stroke-linecap: square"/>
   </g>
   <g id="line2d_27"/>
   <g id="line2d_28">
    <path d="M 73.832727 295.488 
L 90.919809 295.488 
L 108.00689 259.620031 
L 125.093971 198.694948 
L 142.181053 165.44717 
L 159.268134 144.28954 
L 176.355215 126.158682 
L 193.442297 111.751226 
L 210.529378 104.941502 
L 227.616459 105.029287 
L 244.703541 102.013809 
L 261.790622 98.99063 
L 278.877703 99.035806 
L 295.964785 96.067557 
L 313.051866 98.794013 
L 330.138947 96.059856 
L 347.226029 96.105545 
L 364.31311 96.151748 
L 381.400191 96.159448 
L 398.487273 96.167148 
" clip-path="url(#paa2f52672c)" style="fill: none; stroke: #9467bd; stroke-width: 1.5; stroke-linecap: square"/>
   </g>
   <g id="line2d_29"/>
   <g id="line2d_30">
    <path d="M 73.832727 295.488 
L 90.919809 295.488 
L 108.00689 253.865263 
L 125.093971 190.720923 
L 142.181053 150.855418 
L 159.268134 126.827591 
L 176.355215 111.782541 
L 193.442297 96.755459 
L 210.529378 89.440076 
L 227.616459 86.034957 
L 244.703541 80.281215 
L 261.790622 78.738567 
L 278.877703 75.745164 
L 295.964785 75.728223 
L 313.051866 77.581967 
L 330.138947 75.795473 
L 347.226029 75.399159 
L 364.31311 75.728223 
L 381.400191 74.218944 
L 398.487273 72.811823 
" clip-path="url(#paa2f52672c)" style="fill: none; stroke: #e377c2; stroke-width: 1.5; stroke-linecap: square"/>
   </g>
   <g id="line2d_31"/>
   <g id="line2d_32">
    <path d="M 73.832727 295.488 
L 90.919809 295.488 
L 108.00689 253.206108 
L 125.093971 185.151477 
L 142.181053 142.432203 
L 159.268134 115.395057 
L 176.355215 95.949997 
L 193.442297 82.78436 
L 210.529378 74.909413 
L 227.616459 67.456962 
L 244.703541 61.510197 
L 261.790622 59.058901 
L 278.877703 55.446385 
L 295.964785 55.501315 
L 313.051866 56.611713 
L 330.138947 55.547004 
L 347.226029 53.568 
L 364.31311 55.611174 
L 381.400191 55.583966 
L 398.487273 56.201025 
" clip-path="url(#paa2f52672c)" style="fill: none; stroke: #bcbd22; stroke-width: 1.5; stroke-linecap: square"/>
   </g>
   <g id="line2d_33"/>
   <g id="line2d_34">
    <path d="M 73.832727 295.488 
L 90.919809 289.450883 
L 108.00689 286.331706 
L 125.093971 283.533379 
L 142.181053 277.179519 
L 159.268134 277.556839 
L 176.355215 280.207832 
L 193.442297 280.228366 
L 210.529378 277.560946 
L 227.616459 277.18414 
L 244.703541 277.56762 
L 261.790622 277.18722 
L 278.877703 277.568133 
L 295.964785 276.87407 
L 313.051866 277.185166 
L 330.138947 277.569673 
L 347.226029 277.194407 
L 364.31311 277.570187 
L 381.400191 277.198 
L 398.487273 277.167199 
" clip-path="url(#paa2f52672c)" style="fill: none; stroke: #1f77b4; stroke-width: 1.5; stroke-linecap: square"/>
   </g>
   <g id="line2d_35"/>
   <g id="line2d_36">
    <path d="M 73.832727 295.488 
L 90.919809 283.388098 
L 108.00689 268.11101 
L 125.093971 262.727401 
L 142.181053 262.049252 
L 159.268134 255.969526 
L 176.355215 259.008106 
L 193.442297 256.785769 
L 210.529378 255.906897 
L 227.616459 255.971067 
L 244.703541 255.980307 
L 261.790622 253.821114 
L 278.877703 255.981847 
L 295.964785 255.988007 
L 313.051866 255.262629 
L 330.138947 256.785769 
L 347.226029 255.995708 
L 364.31311 256.001868 
L 381.400191 252.962775 
L 398.487273 256.004435 
" clip-path="url(#paa2f52672c)" style="fill: none; stroke: #2ca02c; stroke-width: 1.5; stroke-linecap: square"/>
   </g>
   <g id="line2d_37"/>
   <g id="line2d_38">
    <path d="M 73.832727 295.488 
L 90.919809 295.488 
L 108.00689 277.557353 
L 125.093971 246.081181 
L 142.181053 242.050276 
L 159.268134 237.9398 
L 176.355215 237.946474 
L 193.442297 237.955201 
L 210.529378 234.936643 
L 227.616459 234.929456 
L 244.703541 234.82627 
L 261.790622 231.884203 
L 278.877703 234.931509 
L 295.964785 234.945883 
L 313.051866 234.955124 
L 330.138947 231.925785 
L 347.226029 233.758994 
L 364.31311 231.89909 
L 381.400191 231.930919 
L 398.487273 232.043344 
" clip-path="url(#paa2f52672c)" style="fill: none; stroke: #9467bd; stroke-width: 1.5; stroke-linecap: square"/>
   </g>
   <g id="line2d_39"/>
   <g id="line2d_40">
    <path d="M 73.832727 295.488 
L 90.919809 295.488 
L 108.00689 271.199899 
L 125.093971 244.179181 
L 142.181053 229.096143 
L 159.268134 216.245709 
L 176.355215 213.97255 
L 193.442297 214.022859 
L 210.529378 211.002247 
L 227.616459 211.028428 
L 244.703541 211.024835 
L 261.790622 211.031509 
L 278.877703 211.151122 
L 295.964785 213.90684 
L 313.051866 212.313883 
L 330.138947 211.051016 
L 347.226029 211.057177 
L 364.31311 211.054096 
L 381.400191 210.179844 
L 398.487273 210.561784 
" clip-path="url(#paa2f52672c)" style="fill: none; stroke: #e377c2; stroke-width: 1.5; stroke-linecap: square"/>
   </g>
   <g id="line2d_41"/>
   <g id="line2d_42">
    <path d="M 73.832727 295.488 
L 90.919809 295.488 
L 108.00689 265.266994 
L 125.093971 229.327669 
L 142.181053 211.299996 
L 159.268134 203.389628 
L 176.355215 199.445481 
L 193.442297 192.136257 
L 210.529378 190.248632 
L 227.616459 190.296887 
L 244.703541 188.099192 
L 261.790622 190.313315 
L 278.877703 190.329229 
L 295.964785 190.329229 
L 313.051866 187.905655 
L 330.138947 187.295783 
L 347.226029 190.333336 
L 364.31311 188.119726 
L 381.400191 190.34925 
L 398.487273 190.361571 
" clip-path="url(#paa2f52672c)" style="fill: none; stroke: #bcbd22; stroke-width: 1.5; stroke-linecap: square"/>
   </g>
   <g id="line2d_43"/>
   <g id="line2d_44">
    <path d="M 73.832727 295.488 
L 90.919809 295.488 
L 108.00689 259.40596 
L 125.093971 221.540507 
L 142.181053 199.258104 
L 159.268134 188.454437 
L 176.355215 178.704186 
L 193.442297 176.231329 
L 210.529378 172.729186 
L 227.616459 171.189618 
L 244.703541 169.682392 
L 261.790622 173.206611 
L 278.877703 169.768637 
L 295.964785 170.178812 
L 313.051866 166.799875 
L 330.138947 167.132532 
L 347.226029 166.775233 
L 364.31311 166.917434 
L 381.400191 166.799875 
L 398.487273 167.16744 
" clip-path="url(#paa2f52672c)" style="fill: none; stroke: #1f77b4; stroke-width: 1.5; stroke-linecap: square"/>
   </g>
   <g id="line2d_45"/>
   <g id="line2d_46">
    <path d="M 73.832727 295.488 
L 90.919809 295.488 
L 108.00689 255.367355 
L 125.093971 210.17317 
L 142.181053 186.230047 
L 159.268134 173.604978 
L 176.355215 164.24488 
L 193.442297 158.385386 
L 210.529378 155.261589 
L 227.616459 155.398656 
L 244.703541 152.28872 
L 261.790622 150.343084 
L 278.877703 152.269725 
L 295.964785 149.338952 
L 313.051866 152.381125 
L 330.138947 149.342032 
L 347.226029 149.388748 
L 364.31311 152.408846 
L 381.400191 149.103319 
L 398.487273 152.327222 
" clip-path="url(#paa2f52672c)" style="fill: none; stroke: #2ca02c; stroke-width: 1.5; stroke-linecap: square"/>
   </g>
   <g id="line2d_47"/>
   <g id="line2d_48">
    <path d="M 73.832727 295.488 
L 90.919809 252.439661 
L 108.00689 198.538373 
L 125.093971 174.324196 
L 142.181053 156.138922 
L 159.268134 147.116615 
L 176.355215 140.974259 
L 193.442297 137.701074 
L 210.529378 134.964351 
L 227.616459 131.95452 
L 244.703541 131.96068 
L 261.790622 128.951875 
L 278.877703 127.220311 
L 295.964785 126.905108 
L 313.051866 128.964709 
L 330.138947 126.015455 
L 347.226029 126.034962 
L 364.31311 126.028289 
L 381.400191 126.034962 
L 398.487273 126.05447 
" clip-path="url(#paa2f52672c)" style="fill: none; stroke: #9467bd; stroke-width: 1.5; stroke-linecap: square"/>
   </g>
   <g id="line2d_49"/>
   <g id="line2d_50">
    <path d="M 73.832727 295.488 
L 90.919809 246.596595 
L 108.00689 192.988949 
L 125.093971 162.806445 
L 142.181053 147.734701 
L 159.268134 135.691269 
L 176.355215 126.672042 
L 193.442297 122.809006 
L 210.529378 120.59591 
L 227.616459 117.628688 
L 244.703541 117.689778 
L 261.790622 114.953568 
L 278.877703 113.921713 
L 295.964785 115.420725 
L 313.051866 115.235402 
L 330.138947 113.900666 
L 347.226029 114.745657 
L 364.31311 117.751381 
L 381.400191 117.751381 
L 398.487273 114.745657 
" clip-path="url(#paa2f52672c)" style="fill: none; stroke: #e377c2; stroke-width: 1.5; stroke-linecap: square"/>
   </g>
   <g id="line2d_51"/>
   <g id="line2d_52">
    <path d="M 73.832727 295.488 
L 90.919809 295.488 
L 108.00689 185.70796 
L 125.093971 151.443215 
L 142.181053 136.2842 
L 159.268134 124.275163 
L 176.355215 114.510024 
L 193.442297 112.295388 
L 210.529378 109.29223 
L 227.616459 108.112015 
L 244.703541 106.223876 
L 261.790622 103.30799 
L 278.877703 105.41174 
L 295.964785 103.315177 
L 313.051866 103.359326 
L 330.138947 103.374213 
L 347.226029 102.489694 
L 364.31311 100.38697 
L 381.400191 100.409558 
L 398.487273 99.356656 
" clip-path="url(#paa2f52672c)" style="fill: none; stroke: #bcbd22; stroke-width: 1.5; stroke-linecap: square"/>
   </g>
   <g id="line2d_53"/>
   <g id="line2d_54">
    <path d="M 73.832727 295.488 
L 90.919809 295.488 
L 108.00689 295.330912 
L 125.093971 295.016735 
L 142.181053 294.074206 
L 159.268134 293.523884 
L 176.355215 292.974075 
L 193.442297 292.424266 
L 210.529378 291.795913 
L 227.616459 291.246104 
L 244.703541 290.617238 
L 261.790622 290.067429 
L 278.877703 289.439076 
L 295.964785 288.889267 
L 313.051866 288.260914 
L 330.138947 287.711105 
L 347.226029 287.082239 
L 364.31311 286.453886 
L 381.400191 285.275724 
L 398.487273 284.725915 
" clip-path="url(#paa2f52672c)" style="fill: none; stroke: #1f77b4; stroke-width: 1.5; stroke-linecap: square"/>
   </g>
   <g id="line2d_55">
    <path d="M 73.832727 295.488 
L 90.919809 295.488 
L 108.00689 295.252368 
L 125.093971 294.466926 
L 142.181053 293.523884 
L 159.268134 292.424266 
L 176.355215 291.246104 
L 193.442297 288.732179 
L 210.529378 287.475473 
L 227.616459 286.13971 
L 244.703541 284.883004 
L 261.790622 283.54724 
L 278.877703 282.21199 
L 295.964785 280.954771 
L 313.051866 279.619521 
L 330.138947 278.284271 
L 347.226029 276.948507 
L 364.31311 275.691801 
L 381.400191 274.356038 
L 398.487273 273.020788 
" clip-path="url(#paa2f52672c)" style="fill: none; stroke: #ff7f0e; stroke-width: 1.5; stroke-linecap: square"/>
   </g>
   <g id="line2d_56">
    <path d="M 73.832727 295.488 
L 90.919809 295.488 
L 108.00689 295.095279 
L 125.093971 293.995662 
L 142.181053 292.50281 
L 159.268134 290.774839 
L 176.355215 289.046355 
L 193.442297 287.160783 
L 210.529378 285.275724 
L 227.616459 281.505093 
L 244.703541 279.540977 
L 261.790622 277.57686 
L 278.877703 275.613257 
L 295.964785 273.649141 
L 313.051866 271.685538 
L 330.138947 269.721421 
L 347.226029 267.757305 
L 364.31311 265.715158 
L 381.400191 263.751041 
L 398.487273 261.708894 
" clip-path="url(#paa2f52672c)" style="fill: none; stroke: #2ca02c; stroke-width: 1.5; stroke-linecap: square"/>
   </g>
   <g id="line2d_57">
    <path d="M 73.832727 295.488 
L 90.919809 295.488 
L 108.00689 294.938191 
L 125.093971 293.523884 
L 142.181053 291.638825 
L 159.268134 289.439076 
L 176.355215 287.160783 
L 193.442297 284.725915 
L 210.529378 282.290534 
L 227.616459 279.698065 
L 244.703541 274.592184 
L 261.790622 271.999714 
L 278.877703 269.407245 
L 295.964785 266.736231 
L 313.051866 264.143762 
L 330.138947 261.551293 
L 347.226029 258.959337 
L 364.31311 256.288323 
L 381.400191 253.695854 
L 398.487273 251.02484 
" clip-path="url(#paa2f52672c)" style="fill: none; stroke: #d62728; stroke-width: 1.5; stroke-linecap: square"/>
   </g>
   <g id="line2d_58">
    <path d="M 73.832727 295.488 
L 90.919809 294.859647 
L 108.00689 293.052619 
L 125.093971 290.696295 
L 142.181053 287.946738 
L 159.268134 285.040092 
L 176.355215 281.976358 
L 193.442297 278.83408 
L 210.529378 275.691801 
L 227.616459 272.470979 
L 244.703541 269.328701 
L 261.790622 262.808512 
L 278.877703 259.509146 
L 295.964785 256.288323 
L 313.051866 253.067501 
L 330.138947 249.768134 
L 347.226029 246.468768 
L 364.31311 243.169402 
L 381.400191 239.948579 
L 398.487273 236.727757 
" clip-path="url(#paa2f52672c)" style="fill: none; stroke: #9467bd; stroke-width: 1.5; stroke-linecap: square"/>
   </g>
   <g id="line2d_59">
    <path d="M 73.832727 295.488 
L 90.919809 294.702559 
L 108.00689 292.659898 
L 125.093971 289.988885 
L 142.181053 286.846607 
L 159.268134 283.390152 
L 176.355215 279.855153 
L 193.442297 276.24161 
L 210.529378 272.470979 
L 227.616459 268.700348 
L 244.703541 264.929717 
L 261.790622 261.080028 
L 278.877703 257.152309 
L 295.964785 249.532502 
L 313.051866 245.683327 
L 330.138947 241.833638 
L 347.226029 237.905919 
L 364.31311 234.056743 
L 381.400191 230.207568 
L 398.487273 288.814317 
" clip-path="url(#paa2f52672c)" style="fill: none; stroke: #8c564b; stroke-width: 1.5; stroke-linecap: square"/>
   </g>
   <g id="line2d_60">
    <path d="M 73.832727 295.488 
L 90.919809 294.624015 
L 108.00689 292.424266 
L 125.093971 289.281988 
L 142.181053 285.668445 
L 159.268134 281.740725 
L 176.355215 277.655404 
L 193.442297 273.413508 
L 210.529378 269.093068 
L 227.616459 264.772115 
L 244.703541 260.373131 
L 261.790622 255.817058 
L 278.877703 251.339017 
L 295.964785 246.782944 
L 313.051866 237.74883 
L 330.138947 233.271302 
L 347.226029 228.714716 
L 364.31311 224.237188 
L 381.400191 219.680602 
L 398.487273 215.12453 
" clip-path="url(#paa2f52672c)" style="fill: none; stroke: #e377c2; stroke-width: 1.5; stroke-linecap: square"/>
   </g>
   <g id="line2d_61">
    <path d="M 73.832727 295.488 
L 90.919809 295.488 
L 108.00689 294.545471 
L 125.093971 292.110089 
L 142.181053 284.647371 
L 159.268134 280.326418 
L 176.355215 275.770345 
L 193.442297 270.978127 
L 210.529378 266.107878 
L 227.616459 261.158572 
L 244.703541 256.209779 
L 261.790622 251.103385 
L 278.877703 245.997503 
L 295.964785 240.969653 
L 313.051866 235.942316 
L 330.138947 230.835921 
L 347.226029 220.702189 
L 364.31311 215.517251 
L 381.400191 210.411369 
L 398.487273 205.226431 
" clip-path="url(#paa2f52672c)" style="fill: none; stroke: #7f7f7f; stroke-width: 1.5; stroke-linecap: square"/>
   </g>
   <g id="line2d_62">
    <path d="M 73.832727 295.488 
L 90.919809 295.488 
L 108.00689 294.545471 
L 125.093971 291.874457 
L 142.181053 288.18237 
L 159.268134 279.148256 
L 176.355215 274.041861 
L 193.442297 268.778892 
L 210.529378 263.436865 
L 227.616459 258.016294 
L 244.703541 252.439148 
L 261.790622 246.782944 
L 278.877703 241.126741 
L 295.964785 235.549082 
L 313.051866 229.971936 
L 330.138947 224.315732 
L 347.226029 218.659529 
L 364.31311 212.924781 
L 381.400191 201.534344 
L 398.487273 195.87814 
" clip-path="url(#paa2f52672c)" style="fill: none; stroke: #bcbd22; stroke-width: 1.5; stroke-linecap: square"/>
   </g>
   <g id="line2d_63">
    <path d="M 73.832727 295.488 
L 90.919809 295.488 
L 108.00689 294.388382 
L 125.093971 291.560281 
L 142.181053 287.554017 
L 159.268134 282.840343 
L 176.355215 277.57686 
L 193.442297 266.186423 
L 210.529378 260.216043 
L 227.616459 254.088574 
L 244.703541 248.03965 
L 261.790622 241.912182 
L 278.877703 235.784714 
L 295.964785 229.657759 
L 313.051866 223.530291 
L 330.138947 217.245735 
L 347.226029 211.039722 
L 364.31311 204.83371 
L 381.400191 198.627698 
L 398.487273 192.421686 
" clip-path="url(#paa2f52672c)" style="fill: none; stroke: #17becf; stroke-width: 1.5; stroke-linecap: square"/>
   </g>
   <g id="line2d_64">
    <path d="M 108.00689 295.409456 
L 125.093971 295.095279 
L 142.181053 294.702559 
L 159.268134 294.231294 
L 176.355215 293.759516 
L 193.442297 293.288251 
L 210.529378 292.816987 
L 227.616459 291.874457 
L 244.703541 291.324648 
L 261.790622 290.853383 
L 278.877703 290.381605 
L 295.964785 289.831797 
L 313.051866 289.360532 
L 330.138947 288.889267 
L 347.226029 288.418002 
L 364.31311 287.946738 
L 381.400191 287.396415 
L 398.487273 286.925151 
" clip-path="url(#paa2f52672c)" style="fill: none; stroke: #1f77b4; stroke-width: 1.5; stroke-linecap: square"/>
   </g>
   <g id="line2d_65">
    <path d="M 90.919809 295.488 
L 108.00689 295.173824 
L 125.093971 294.466926 
L 142.181053 293.680972 
L 159.268134 292.659898 
L 176.355215 291.638825 
L 193.442297 290.617238 
L 210.529378 289.596164 
L 227.616459 288.496546 
L 244.703541 287.396415 
L 261.790622 285.275724 
L 278.877703 284.175593 
L 295.964785 283.075975 
L 313.051866 281.976358 
L 330.138947 280.876227 
L 347.226029 279.776609 
L 364.31311 278.755535 
L 381.400191 277.655404 
L 398.487273 276.555787 
" clip-path="url(#paa2f52672c)" style="fill: none; stroke: #ff7f0e; stroke-width: 1.5; stroke-linecap: square"/>
   </g>
   <g id="line2d_66">
    <path d="M 90.919809 295.016735 
L 108.00689 293.995662 
L 125.093971 292.659898 
L 142.181053 291.16756 
L 159.268134 289.674708 
L 176.355215 288.103826 
L 193.442297 286.453886 
L 210.529378 284.804459 
L 227.616459 283.233064 
L 244.703541 281.583637 
L 261.790622 279.933697 
L 278.877703 276.634331 
L 295.964785 274.984904 
L 313.051866 273.25642 
L 330.138947 271.606994 
L 347.226029 269.87851 
L 364.31311 268.229083 
L 381.400191 266.579143 
L 398.487273 264.850659 
" clip-path="url(#paa2f52672c)" style="fill: none; stroke: #2ca02c; stroke-width: 1.5; stroke-linecap: square"/>
   </g>
   <g id="line2d_67">
    <path d="M 90.919809 294.938191 
L 108.00689 293.602428 
L 125.093971 291.874457 
L 142.181053 289.910341 
L 159.268134 287.868194 
L 176.355215 285.746989 
L 193.442297 283.54724 
L 210.529378 281.348005 
L 227.616459 279.148256 
L 244.703541 276.948507 
L 261.790622 274.749272 
L 278.877703 272.549523 
L 295.964785 270.349774 
L 313.051866 265.793702 
L 330.138947 263.515409 
L 347.226029 261.237116 
L 364.31311 258.959337 
L 381.400191 256.759588 
L 398.487273 254.402751 
" clip-path="url(#paa2f52672c)" style="fill: none; stroke: #d62728; stroke-width: 1.5; stroke-linecap: square"/>
   </g>
   <g id="line2d_68">
    <path d="M 90.919809 295.488 
L 108.00689 294.702559 
L 125.093971 292.974075 
L 142.181053 288.339458 
L 159.268134 285.746989 
L 176.355215 282.997431 
L 193.442297 280.326418 
L 210.529378 277.57686 
L 227.616459 274.749272 
L 244.703541 271.999714 
L 261.790622 269.171613 
L 278.877703 266.343511 
L 295.964785 263.515409 
L 313.051866 260.687307 
L 330.138947 257.859206 
L 347.226029 252.203516 
L 364.31311 249.375414 
L 381.400191 246.468768 
L 398.487273 243.640666 
" clip-path="url(#paa2f52672c)" style="fill: none; stroke: #9467bd; stroke-width: 1.5; stroke-linecap: square"/>
   </g>
   <g id="line2d_69">
    <path d="M 90.919809 295.488 
L 108.00689 294.624015 
L 125.093971 292.659898 
L 142.181053 290.145973 
L 159.268134 287.317871 
L 176.355215 281.190917 
L 193.442297 277.970094 
L 210.529378 274.827816 
L 227.616459 271.52845 
L 244.703541 268.229083 
L 261.790622 264.850659 
L 278.877703 261.472749 
L 295.964785 258.173382 
L 313.051866 254.795472 
L 330.138947 251.496105 
L 347.226029 248.118195 
L 364.31311 244.740284 
L 381.400191 237.984463 
L 398.487273 234.606552 
" clip-path="url(#paa2f52672c)" style="fill: none; stroke: #8c564b; stroke-width: 1.5; stroke-linecap: square"/>
   </g>
   <g id="line2d_70">
    <path d="M 90.919809 295.488 
L 108.00689 294.466926 
L 125.093971 292.267178 
L 142.181053 289.439076 
L 159.268134 286.218254 
L 176.355215 282.683255 
L 193.442297 275.377625 
L 210.529378 271.606994 
L 227.616459 267.914393 
L 244.703541 264.143762 
L 261.790622 260.451675 
L 278.877703 256.6025 
L 295.964785 252.831869 
L 313.051866 249.061237 
L 330.138947 245.290093 
L 347.226029 241.440918 
L 364.31311 237.74883 
L 381.400191 233.899655 
L 398.487273 230.207568 
" clip-path="url(#paa2f52672c)" style="fill: none; stroke: #e377c2; stroke-width: 1.5; stroke-linecap: square"/>
   </g>
   <g id="line2d_71">
    <path d="M 90.919809 295.488 
L 108.00689 294.309838 
L 125.093971 291.795913 
L 142.181053 288.653635 
L 159.268134 285.040092 
L 176.355215 281.269461 
L 193.442297 277.341228 
L 210.529378 273.25642 
L 227.616459 265.008261 
L 244.703541 260.844396 
L 261.790622 256.523956 
L 278.877703 252.28206 
L 295.964785 248.03965 
L 313.051866 243.797755 
L 330.138947 239.555859 
L 347.226029 235.234905 
L 364.31311 230.993009 
L 381.400191 226.672569 
L 398.487273 222.273072 
" clip-path="url(#paa2f52672c)" style="fill: none; stroke: #7f7f7f; stroke-width: 1.5; stroke-linecap: square"/>
   </g>
   <g id="line2d_72">
    <path d="M 90.919809 295.488 
L 108.00689 294.231294 
L 125.093971 291.638825 
L 142.181053 288.18237 
L 159.268134 284.333195 
L 176.355215 280.090785 
L 193.442297 275.770345 
L 210.529378 271.371361 
L 227.616459 266.814776 
L 244.703541 262.258703 
L 261.790622 253.146045 
L 278.877703 248.510915 
L 295.964785 243.797755 
L 313.051866 239.241682 
L 330.138947 234.606552 
L 347.226029 229.971936 
L 364.31311 225.258262 
L 381.400191 220.702189 
L 398.487273 216.06706 
" clip-path="url(#paa2f52672c)" style="fill: none; stroke: #bcbd22; stroke-width: 1.5; stroke-linecap: square"/>
   </g>
   <g id="patch_3">
    <path d="M 57.6 307.584 
L 57.6 41.472 
" style="fill: none; stroke: #000000; stroke-width: 0.8; stroke-linejoin: miter; stroke-linecap: square"/>
   </g>
   <g id="patch_4">
    <path d="M 414.72 307.584 
L 414.72 41.472 
" style="fill: none; stroke: #000000; stroke-width: 0.8; stroke-linejoin: miter; stroke-linecap: square"/>
   </g>
   <g id="patch_5">
    <path d="M 57.6 307.584 
L 414.72 307.584 
" style="fill: none; stroke: #000000; stroke-width: 0.8; stroke-linejoin: miter; stroke-linecap: square"/>
   </g>
   <g id="patch_6">
    <path d="M 57.6 41.472 
L 414.72 41.472 
" style="fill: none; stroke: #000000; stroke-width: 0.8; stroke-linejoin: miter; stroke-linecap: square"/>
   </g>
  </g>
 </g>
 <defs>
  <clipPath id="paa2f52672c">
   <rect x="57.6" y="41.472" width="357.12" height="266.112"/>
  </clipPath>
 </defs>
</svg>
